<svg id="Capa_1" enable-background="new 0 0 512 512" height="512" viewBox="0 0 512 512" width="512" xmlns="http://www.w3.org/2000/svg"><g><g><path d="m256.328 7.701c-71.431 0-129.336 57.906-129.336 129.337 0 62.327 44.088 114.352 102.778 126.602l4.967-2.676h44.75l3.402 2.676c58.689-12.25 102.777-64.275 102.777-126.601-.001-71.432-57.907-129.338-129.338-129.338z" fill="#ff636e"/><g><path d="m168.375 137.038c0-64.387 47.052-117.776 108.645-127.681-6.738-1.084-13.648-1.655-20.692-1.655-71.431 0-129.336 57.906-129.336 129.337 0 62.327 44.088 114.352 102.778 126.602l4.967-2.676h25.863c-53.342-15.953-92.225-65.396-92.225-123.927z" fill="#ff4654"/></g><circle cx="415.043" cy="485.377" fill="#ffd064" r="19.324"/><path d="m415.043 485.377c0-7.148 3.892-13.375 9.662-16.718-2.844-1.648-6.138-2.606-9.662-2.606-10.672 0-19.324 8.652-19.324 19.324s8.652 19.324 19.324 19.324c3.524 0 6.818-.958 9.662-2.606-5.77-3.342-9.662-9.569-9.662-16.718z" fill="#ffc250"/><path d="m230.654 237.5 2.045 3.175h45.634l3.67-3.175c.038-7.457.293-14.922.822-22.382l.785-11.083-2.433-2.934h-49.624l-2.506 2.934.785 11.083c.529 7.46.784 14.925.822 22.382z" fill="#ffc250"/><path d="m229.047 204.035.785 11.083c.529 7.46.784 14.925.822 22.382l2.045 3.176h29.598c.259-22.659-.873-37.63-.873-37.63l-1.654-1.945h-28.217z" fill="#ebb044"/><path d="m309.7 173.756h-66.901l-1.74 1.378v1.11c0 13.076 8.26 24.178 19.503 27.771h25.569c14.746 0 26.811-12.065 26.811-26.811v-1.025z" fill="#ffd064"/><path d="m241.419 176.468v-1.09l2.048-1.622h-40.503l-3.25 2.422v1.025c0 14.746 12.065 26.811 26.811 26.811h34.863c-11.46-3.239-19.969-14.386-19.969-27.546z" fill="#ffc250"/><path d="m289.651 70.728c-9.862 0-56.798 0-66.645 0-25.904 0-42.03 28.208-28.786 50.47 4.226 7.103 7.633 14.676 9.58 22.524l1.596 3.179h101.52l1.94-3.179c1.947-7.849 5.354-15.421 9.58-22.524 13.244-22.262-2.882-50.47-28.785-50.47z" fill="#fff1af"/><path d="m238.003 121.199c-13.244-22.262 2.882-50.47 28.786-50.47-17.017 0-37.633 0-43.783 0-25.904 0-42.03 28.208-28.786 50.47 4.226 7.103 7.633 14.676 9.58 22.524l1.596 3.179h43.783l-1.596-3.179c-1.948-7.849-5.354-15.421-9.58-22.524z" fill="#ffe07d"/><path d="m229.769 263.639c8.573 1.789 17.455 2.735 26.559 2.735s17.987-.946 26.559-2.735c-.622-8.687-.929-17.407-.885-26.139h-51.349c.046 8.733-.262 17.452-.884 26.139z" fill="#ffd064"/><path d="m229.769 263.639c8.573 1.789 17.455 2.735 26.559 2.735 1.714 0 3.417-.044 5.115-.11.583-10.515.829-20.25.881-28.765h-31.67c.045 8.734-.263 17.453-.885 26.14z" fill="#ffc250"/><path d="m317.691 143.723h-75.22c-5.836 1.211-10.257 6.409-10.257 12.59v7.274c0 6.181 4.421 11.38 10.257 12.59h75.22c6.957 0 12.649-5.692 12.649-12.649v-7.157c0-6.956-5.692-12.648-12.649-12.648z" fill="#ffe07d"/><path d="m232.422 163.529v-7.157c0-6.957 5.692-12.649 12.649-12.649h-50.105c-6.957 0-12.649 5.692-12.649 12.649v7.157c0 6.957 5.692 12.649 12.649 12.649h50.105c-6.957 0-12.649-5.692-12.649-12.649z" fill="#ffd064"/><circle cx="366.039" cy="375.167" fill="#ffd064" r="19.324"/><path d="m366.039 375.167c0-7.148 3.892-13.375 9.662-16.718-2.844-1.648-6.138-2.606-9.662-2.606-10.672 0-19.324 8.652-19.324 19.324s8.652 19.324 19.324 19.324c3.524 0 6.818-.958 9.662-2.606-5.77-3.343-9.662-9.57-9.662-16.718z" fill="#ffc250"/><circle cx="146.617" cy="375.167" fill="#ffd064" r="19.324"/><path d="m146.617 375.167c0-7.148 3.892-13.375 9.662-16.718-2.844-1.648-6.138-2.606-9.662-2.606-10.672 0-19.324 8.652-19.324 19.324s8.652 19.324 19.324 19.324c3.524 0 6.818-.958 9.662-2.606-5.77-3.343-9.662-9.57-9.662-16.718z" fill="#ffc250"/><circle cx="97.613" cy="485.377" fill="#ffd064" r="19.324"/><path d="m97.613 485.377c0-7.148 3.892-13.375 9.662-16.718-2.844-1.648-6.138-2.606-9.662-2.606-10.672 0-19.324 8.652-19.324 19.324s8.652 19.324 19.324 19.324c3.524 0 6.818-.958 9.662-2.606-5.77-3.342-9.662-9.569-9.662-16.718z" fill="#ffc250"/><circle cx="195.621" cy="485.377" fill="#8bcaff" r="19.324"/><path d="m195.621 485.377c0-7.148 3.892-13.375 9.662-16.718-2.844-1.648-6.138-2.606-9.662-2.606-10.672 0-19.324 8.652-19.324 19.324s8.652 19.324 19.324 19.324c3.524 0 6.818-.958 9.662-2.606-5.771-3.342-9.662-9.569-9.662-16.718z" fill="#60b9fe"/><circle cx="317.036" cy="485.377" fill="#ff636e" r="19.324"/><path d="m317.036 485.377c0-7.148 3.892-13.375 9.662-16.718-2.844-1.648-6.138-2.606-9.662-2.606-10.672 0-19.324 8.652-19.324 19.324s8.652 19.324 19.324 19.324c3.524 0 6.818-.958 9.662-2.606-5.771-3.342-9.662-9.569-9.662-16.718z" fill="#ff4654"/></g><g><path d="m89.785 424.45v34.977c-11.151 3.253-19.324 13.562-19.324 25.749 0 14.791 12.033 26.824 26.824 26.824s26.824-12.033 26.824-26.824c0-12.188-8.173-22.496-19.324-25.749v-27.477h83.007v27.477c-11.151 3.253-19.324 13.562-19.324 25.749 0 14.791 12.033 26.824 26.824 26.824s26.824-12.033 26.824-26.824c0-12.188-8.173-22.496-19.324-25.749v-34.977c0-4.142-3.357-7.5-7.5-7.5h-98.007c-4.142 0-7.5 3.358-7.5 7.5zm117.331 60.726c0 6.52-5.305 11.824-11.824 11.824s-11.824-5.304-11.824-11.824 5.305-11.824 11.824-11.824 11.824 5.304 11.824 11.824zm-98.007 0c0 6.52-5.305 11.824-11.824 11.824s-11.824-5.304-11.824-11.824 5.305-11.824 11.824-11.824 11.824 5.304 11.824 11.824z"/><path d="m414.715 416.95h-98.008c-4.143 0-7.5 3.358-7.5 7.5v34.977c-11.151 3.253-19.324 13.562-19.324 25.749 0 14.791 12.033 26.824 26.824 26.824s26.824-12.033 26.824-26.824c0-12.188-8.173-22.496-19.324-25.749v-27.477h83.008v27.477c-11.151 3.253-19.324 13.562-19.324 25.749 0 14.791 12.033 26.824 26.824 26.824s26.824-12.033 26.824-26.824c0-12.188-8.173-22.496-19.324-25.749v-34.977c0-4.142-3.358-7.5-7.5-7.5zm-86.184 68.226c0 6.52-5.305 11.824-11.824 11.824s-11.824-5.304-11.824-11.824 5.305-11.824 11.824-11.824 11.824 5.304 11.824 11.824zm98.008 0c0 6.52-5.305 11.824-11.824 11.824s-11.824-5.304-11.824-11.824 5.305-11.824 11.824-11.824 11.824 5.304 11.824 11.824z"/><path d="m377.402 126.588c.345 4.128 3.986 7.193 8.097 6.852 4.128-.343 7.195-3.968 6.853-8.096-5.851-70.289-64.731-125.344-136.352-125.344-75.452 0-136.837 61.385-136.837 136.836 0 73.002 57.433 132.725 129.337 136.628v42.169h-102.212c-4.143 0-7.5 3.358-7.5 7.5v26.082c-11.151 3.253-19.324 13.562-19.324 25.749 0 14.791 12.033 26.824 26.824 26.824s26.824-12.033 26.824-26.824c0-12.188-8.173-22.496-19.324-25.749v-18.582h204.423v18.582c-11.151 3.253-19.324 13.562-19.324 25.749 0 14.791 12.033 26.824 26.824 26.824s26.824-12.033 26.824-26.824c0-12.188-8.173-22.496-19.324-25.749v-26.082c0-4.142-3.357-7.5-7.5-7.5h-102.211v-42.17c62.429-3.397 115.228-49.006 126.949-111.106.768-4.07-1.909-7.993-5.979-8.761-4.063-.764-7.992 1.909-8.761 5.979-8.704 46.118-42.895 82.073-86.339 94.444-.748-15.96-.333-28.053.728-43.04 14.796-1.858 26.686-13.166 29.416-27.677 10.102-1.078 17.997-9.648 17.997-20.031v-7.157c0-10.598-8.23-19.291-18.632-20.072 1.527-3.704 3.413-7.468 5.673-11.267 16.226-27.272-3.485-61.805-35.23-61.805h-25.822v-12.736h18.108c4.143 0 7.5-3.358 7.5-7.5s-3.357-7.5-7.5-7.5h-18.108v-18.109c0-.657-.093-1.291-.252-1.898 59.671 3.594 109.149 51.209 114.154 111.361zm-219.29 248.377c0 6.52-5.305 11.824-11.824 11.824s-11.824-5.304-11.824-11.824 5.305-11.824 11.824-11.824 11.824 5.304 11.824 11.824zm219.423 0c0 6.52-5.305 11.824-11.824 11.824s-11.824-5.304-11.824-11.824 5.305-11.824 11.824-11.824 11.824 5.304 11.824 11.824zm-154.905-120.938c-51.01-14.546-88.467-61.576-88.467-117.19 0-64.747 50.771-117.852 114.59-121.615-.16.609-.253 1.245-.253 1.903v18.109h-18.109c-4.143 0-7.5 3.358-7.5 7.5s3.357 7.5 7.5 7.5h18.109v12.737h-25.822c-31.74 0-51.461 34.528-35.231 61.805 2.26 3.799 4.146 7.563 5.673 11.267-10.401.781-18.631 9.474-18.631 20.072v7.157c0 10.383 7.896 18.953 17.997 20.031 2.73 14.51 14.62 25.819 29.416 27.677 1.044 14.741 1.483 26.911.728 43.047zm14.884 3.246c.229-4.26.372-8.524.445-12.784h36.082c.073 4.258.215 8.52.444 12.778-11.819 1.81-24.529 1.909-36.971.006zm36.586-27.784h-36.2c-.222-8.571-.664-14.317-.941-18.231h38.082c-.27 3.809-.718 9.601-.941 18.231zm48.412-73.374v7.157c0 2.791-2.358 5.149-5.149 5.149h-43.863c-4.143 0-7.5 3.358-7.5 7.5s3.357 7.5 7.5 7.5h30.474c-2.67 7.468-9.796 12.836-18.171 12.836-6.403 0-51.445 0-59.606 0-8.374 0-15.5-5.368-18.17-12.836h30.473c4.143 0 7.5-3.358 7.5-7.5s-3.357-7.5-7.5-7.5h-43.862c-2.791 0-5.149-2.358-5.149-5.149v-7.157c0-2.791 2.358-5.149 5.149-5.149h122.725c2.79 0 5.149 2.358 5.149 5.149zm-33.19-78.144c9.46 0 17.9 4.913 22.581 13.143 4.658 8.192 4.568 17.909-.241 25.994-3.764 6.326-6.698 12.646-8.761 18.859h-93.804c-2.063-6.213-4.997-12.533-8.761-18.859-10.265-17.255 2.22-39.136 22.341-39.136h66.645z"/></g></g></svg>