<svg id="Capa_1" enable-background="new 0 0 512 512" height="512" viewBox="0 0 512 512" width="512" xmlns="http://www.w3.org/2000/svg"><g><g><path d="m405.412 436.725h-291.009c-18.219 0-32.989 12.572-32.989 34.989 0 18.219 14.77 32.989 32.989 32.989h285.528l5.48-5.48v-62.498z" fill="#dbedff"/><path d="m148.915 471.713c0-22.417 14.77-34.989 32.989-34.989h-67.5c-18.219 0-32.989 12.572-32.989 34.989 0 18.219 14.77 32.989 32.989 32.989h67.5c-18.22 0-32.989-14.77-32.989-32.989z" fill="#b5dcff"/><path d="m425.088 436.725h-25.156v67.977h25.156c3.399 0 6.155-2.756 6.155-6.155v-55.667c0-3.4-2.756-6.155-6.155-6.155z" fill="#ff636e"/><path d="m425.088 7.701h-289.156l-5.278 7.595v414.084l5.278 9.345h289.156c3.399 0 6.155 2.756 6.155 6.155v-431.024c0-3.399-2.756-6.155-6.155-6.155z" fill="#ff9ba1"/><path d="m172.32 7.701h-36.388l-5.278 7.595v414.084l5.278 9.345h36.388z" fill="#ff7f87"/><path d="m135.932 7.701h-21.528c-18.219 0-32.989 14.77-32.989 32.989v431.023c0-18.219 14.77-32.989 32.989-32.989h21.528z" fill="#ff4654"/><path d="m394.268 37.701h-221.361c-3.852 0-6.975 3.123-6.975 6.975v357.073c0 3.852 3.123 6.975 6.975 6.975h221.361c3.852 0 6.975-3.123 6.975-6.975v-357.073c0-3.852-3.123-6.975-6.975-6.975z" fill="#ff636e"/><path d="m210.182 401.749v-357.073c0-3.852 3.123-6.975 6.975-6.975h-44.25c-3.852 0-6.975 3.123-6.975 6.975v357.073c0 3.852 3.123 6.975 6.975 6.975h44.25c-3.852.001-6.975-3.122-6.975-6.975z" fill="#ff4654"/><path d="m283.588 120.827c-21.458 0-38.854 17.396-38.854 38.854 0 12.363 5.788 23.36 14.786 30.475l1.675 3.224h42.875l3.585-3.224c8.998-7.115 14.786-18.113 14.786-30.475 0-21.459-17.395-38.854-38.853-38.854z" fill="#fee6c1"/><path d="m271.627 159.68c0-16.731 10.576-30.99 25.407-36.462-4.19-1.546-8.719-2.392-13.447-2.392-21.458 0-38.854 17.396-38.854 38.854 0 12.363 5.788 23.36 14.786 30.475l1.675 3.224h26.893l-1.675-3.224c-8.998-7.115-14.785-18.112-14.785-30.475z" fill="#fcd79b"/><path d="m321.011 271.78c-16.663-16.66-19.706-39.497-19.888-52.852l-3.469-3.799h-29.167l-2.435 3.799c-.183 13.355-3.225 36.191-19.888 52.852-6.334 6.333-6.073 16.796.591 22.769l8.34 7.474 3.892 2.773h49l4.093-2.773 8.34-7.474c6.664-5.973 6.925-16.436.591-22.769z" fill="#fee6c1"/><path d="m277.713 294.548c-4.047-5.973-4.206-16.436-.359-22.769 10.12-16.66 11.968-39.497 12.079-52.852l1.479-3.799h-22.425l-2.435 3.799c-.183 13.355-3.225 36.191-19.888 52.852-6.334 6.333-6.073 16.796.591 22.769l8.34 7.474 3.892 2.773h26.155l-2.364-2.773z" fill="#fcd79b"/><path d="m331.179 315.76c-1.408-7.975-8.423-13.737-16.521-13.737-2.728 0-59.415 0-62.142 0-8.098 0-15.112 5.762-16.521 13.737-1.074 6.082-4.628 13.159-13.926 18.974l4.625 3.521h115.126l3.285-3.521c-9.297-5.815-12.852-12.892-13.926-18.974z" fill="#fbc56c"/><path d="m273.996 315.76c1.408-7.975 8.423-13.737 16.521-13.737-16.798 0-36.423 0-38 0-8.098 0-15.112 5.762-16.521 13.737-1.074 6.082-4.628 13.159-13.926 18.974l4.625 3.521h38l-4.625-3.521c9.297-5.815 12.852-12.892 13.926-18.974z" fill="#ebb865"/><path d="m346.987 334.733h-91.696c-4.94 1.295-8.618 5.797-8.618 11.129v6.515c0 5.332 3.678 9.834 8.618 11.129h91.696c6.168 0 11.214-5.046 11.214-11.214v-6.345c0-6.168-5.046-11.214-11.214-11.214z" fill="#fcd79b"/><path d="m246.974 352.292v-6.345c0-6.168 5.046-11.214 11.214-11.214h-38c-6.167 0-11.214 5.046-11.214 11.214v6.345c0 6.167 5.046 11.214 11.214 11.214h38c-6.168 0-11.214-5.046-11.214-11.214z" fill="#fbc56c"/><path d="m308.133 190.155h-19.459c-5.149 1.098-9.043 5.694-9.043 11.158v6.456c0 5.464 3.894 10.06 9.044 11.158h19.458c6.167 0 11.214-5.046 11.214-11.214v-6.345c0-6.166-5.046-11.213-11.214-11.213z" fill="#fcd79b"/><path d="m279.828 207.714v-6.345c0-6.168 5.046-11.214 11.214-11.214h-32c-6.168 0-11.214 5.046-11.214 11.214v6.345c0 6.167 5.046 11.214 11.214 11.214h32c-6.168 0-11.214-5.046-11.214-11.214z" fill="#fbc56c"/></g><g><path d="m172.578 30c-7.981 0-14.475 6.494-14.475 14.475v357.073c0 7.981 6.493 14.475 14.475 14.475h221.361c7.981 0 14.476-6.494 14.476-14.475v-357.073c0-7.981-6.494-14.475-14.476-14.475zm220.837 371.023h-220.311v-356.023h220.312v356.023z"/><path d="m246.509 88.95h73.5c4.143 0 7.5-3.358 7.5-7.5s-3.357-7.5-7.5-7.5h-73.5c-4.143 0-7.5 3.358-7.5 7.5s3.357 7.5 7.5 7.5z"/><path d="m219.859 370.805h45.899c4.143 0 7.5-3.358 7.5-7.5s-3.357-7.5-7.5-7.5h-45.899c-2.013 0-3.714-1.701-3.714-3.714v-6.345c0-2.013 1.701-3.714 3.714-3.714h126.799c2.013 0 3.714 1.701 3.714 3.714v6.345c0 2.013-1.701 3.714-3.714 3.714h-45.899c-4.143 0-7.5 3.358-7.5 7.5s3.357 7.5 7.5 7.5h45.899c10.319 0 18.714-8.395 18.714-18.714v-6.345c0-10.175-8.166-18.462-18.287-18.692-4.996-3.556-7.976-7.853-8.849-12.8-1.236-7.002-5.43-12.825-11.164-16.337 8.1-9.316 7.384-23.173-1.087-31.642-12.135-12.133-16.104-28.332-17.265-40.094 9.893-.482 17.799-8.658 17.799-18.667v-6.345c0-5.506-2.404-10.448-6.201-13.875 5.985-7.934 9.295-17.614 9.295-27.814 0-25.56-20.794-46.354-46.354-46.354s-46.354 20.794-46.354 46.354c0 10.199 3.311 19.879 9.295 27.813-3.797 3.427-6.202 8.37-6.202 13.876v6.345c0 10.01 7.906 18.186 17.799 18.668-1.162 11.764-5.132 27.963-17.265 40.094-8.478 8.476-9.181 22.332-1.087 31.643-5.735 3.512-9.928 9.335-11.165 16.337-.874 4.947-3.853 9.244-8.849 12.8-10.121.23-18.287 8.518-18.287 18.692v6.345c.002 10.317 8.396 18.712 18.715 18.712zm63.4-242.68c17.288 0 31.354 14.065 31.354 31.354 0 8.799-3.633 17.042-10.047 22.975h-42.612c-6.415-5.934-10.048-14.176-10.048-22.975-.001-17.289 14.065-31.354 31.353-31.354zm-28.26 79.388v-6.345c0-2.013 1.701-3.714 3.714-3.714h49.092c2.013 0 3.714 1.701 3.714 3.714v6.345c0 2.013-1.701 3.714-3.714 3.714-36.154 0-13.506 0-49.092 0-2.013 0-3.714-1.701-3.714-3.714zm-3.86 69.369c15.771-15.768 20.497-36.386 21.717-50.655h20.808c1.219 14.268 5.943 34.885 21.717 50.655 3.299 3.298 3.168 8.777-.294 11.88l-6.203 5.56h-51.247l-6.203-5.559c-3.46-3.101-3.597-8.579-.295-11.881zm-8.086 39.98c.771-4.369 4.613-7.541 9.135-7.541h62.143c4.521 0 8.363 3.171 9.135 7.541.524 2.971 1.587 6.501 3.644 10.17h-87.7c2.057-3.669 3.118-7.199 3.643-10.17z"/><path d="m430.914 208.727c4.143 0 7.5-3.358 7.5-7.5v-187.572c0-7.53-6.126-13.655-13.655-13.655-12.273 0-299.306 0-310.684 0-22.326 0-40.489 18.163-40.489 40.488v431.023c0 22.325 18.163 40.488 40.489 40.488h310.684c.471 0 .936-.024 1.394-.071 6.877-.701 12.261-6.526 12.261-13.585v-53.667-208.449c0-4.142-3.357-7.5-7.5-7.5s-7.5 3.358-7.5 7.5v194.796c-10.207 0-266.472 0-280.311 0v-416.023h280.311v186.227c0 4.142 3.357 7.5 7.5 7.5zm-23.81 237.296h16.311v50.977h-16.311zm-318.518-405.535c0-14.054 11.435-25.488 25.489-25.488h14.028v416.023c-14.762 0-26.6-1.443-39.518 9.052v-399.587zm303.518 405.535v50.977h-278.029c-14.055 0-25.489-11.434-25.489-25.488 0-14.055 11.435-25.489 25.489-25.489z"/></g></g></svg>