<?xml version="1.0" encoding="iso-8859-1"?>
<!-- Generator: Adobe Illustrator 19.0.0, SVG Export Plug-In . SVG Version: 6.00 Build 0)  -->
<svg version="1.1" id="Capa_1" xmlns="http://www.w3.org/2000/svg" xmlns:xlink="http://www.w3.org/1999/xlink" x="0px" y="0px"
	 viewBox="0 0 512.001 512.001" style="enable-background:new 0 0 512.001 512.001;" xml:space="preserve">
<path style="fill:#BA7052;" d="M497.379,80.415h-17.311H270.494L256,94.909l-14.494-14.494H31.932H14.621
	C6.546,80.415,0,86.961,0,95.036v324.792c0,8.075,6.546,14.621,14.621,14.621h203.625c4.276,0,8.122,2.675,9.531,6.712
	c4.084,11.711,15.223,20.114,28.327,20.114c13.179,0,24.372-8.501,28.397-20.318c1.337-3.926,5.098-6.509,9.246-6.509H497.38
	c8.075,0,14.621-6.546,14.621-14.621V95.036C512,86.961,505.454,80.415,497.379,80.415z"/>
<g>
	<path style="fill:#AD644B;" d="M20.519,419.827V95.036c0-8.075,6.546-14.621,14.621-14.621h-3.208H14.621
		C6.546,80.415,0,86.961,0,95.036v324.792c0,8.075,6.546,14.621,14.621,14.621H35.14C27.065,434.448,20.519,427.902,20.519,419.827z
		"/>
	<path style="fill:#AD644B;" d="M248.295,441.16c-1.408-4.038-5.254-6.712-9.531-6.712h-20.519c4.276,0,8.122,2.675,9.531,6.712
		c4.084,11.712,15.223,20.114,28.327,20.114c3.607,0,7.056-0.656,10.26-1.824C257.93,456.378,251.255,449.648,248.295,441.16z"/>
</g>
<path style="fill:#DDCDC7;" d="M213.372,361.444H42.088c-5.609,0-10.156-4.839-10.156-10.809v37.067
	c0,7.501,5.714,13.582,12.763,13.582h211.329C255.369,392.917,250.447,361.444,213.372,361.444z"/>
<path style="fill:#C9BCB8;" d="M52.612,387.702v-26.258H42.088c-5.609,0-10.157-4.839-10.157-10.809v37.067
	c0,7.501,5.714,13.582,12.763,13.582h20.68C58.326,401.284,52.612,395.203,52.612,387.702z"/>
<path style="fill:#EADCD6;" d="M213.372,50.725H41.717c-5.404,0-9.785,4.378-9.785,9.779v293.213
	c0,5.606,4.547,10.151,10.157,10.151h171.284c37.075,0,41.997,29.558,42.651,37.416h0.103V90.054
	C256.127,90.054,256.127,50.725,213.372,50.725z"/>
<g>
	<path style="fill:#DDCDC7;" d="M52.612,50.725H41.717c-5.404,0-9.785,4.378-9.785,9.779v293.213
		c0,5.606,4.548,10.151,10.157,10.151h10.524L52.612,50.725L52.612,50.725z"/>
	<path style="fill:#DDCDC7;" d="M298.73,361.444h171.187c5.606,0,10.151-4.839,10.151-10.809v37.067
		c0,7.501-5.711,13.582-12.755,13.582h-211.21C256.757,392.917,261.676,361.444,298.73,361.444z"/>
</g>
<path style="fill:#C9BCB8;" d="M319.232,361.444H298.73c-37.054,0-41.973,31.474-42.627,39.84h20.502
	C277.259,392.918,282.178,361.444,319.232,361.444z"/>
<path style="fill:#EADCD6;" d="M298.73,50.725h171.559c5.401,0,9.779,4.378,9.779,9.779v293.213c0,5.606-4.545,10.151-10.151,10.151
	H298.73c-37.054,0-41.973,29.558-42.627,37.416H256V90.054C256,90.054,256,50.725,298.73,50.725z"/>
<path style="fill:#DDCDC7;" d="M276.605,55.435C256.004,65.875,256,90.054,256,90.054v311.23h0.103
	c0.491-5.902,3.391-24.043,20.502-32.71V55.435z"/>
<g>
	<path style="fill:#C9BCB8;" d="M428.938,115.964h-82.521c-4.267,0-7.727-3.459-7.727-7.727c0-4.268,3.459-7.727,7.727-7.727h82.521
		c4.267,0,7.727,3.459,7.727,7.727C436.665,112.505,433.205,115.964,428.938,115.964z"/>
	<path style="fill:#C9BCB8;" d="M428.938,156.951h-82.521c-4.267,0-7.727-3.459-7.727-7.727c0-4.267,3.459-7.727,7.727-7.727h82.521
		c4.267,0,7.727,3.459,7.727,7.727C436.665,153.492,433.205,156.951,428.938,156.951z"/>
	<path style="fill:#C9BCB8;" d="M428.938,197.938h-82.521c-4.267,0-7.727-3.459-7.727-7.727c0-4.267,3.459-7.727,7.727-7.727h82.521
		c4.267,0,7.727,3.459,7.727,7.727C436.665,194.479,433.205,197.938,428.938,197.938z"/>
	<path style="fill:#C9BCB8;" d="M428.938,238.925h-82.521c-4.267,0-7.727-3.459-7.727-7.727c0-4.267,3.459-7.727,7.727-7.727h82.521
		c4.267,0,7.727,3.459,7.727,7.727C436.665,235.466,433.205,238.925,428.938,238.925z"/>
	<path style="fill:#C9BCB8;" d="M428.938,279.912h-82.521c-4.267,0-7.727-3.459-7.727-7.727c0-4.267,3.459-7.727,7.727-7.727h82.521
		c4.267,0,7.727,3.459,7.727,7.727C436.665,276.453,433.205,279.912,428.938,279.912z"/>
	<path style="fill:#C9BCB8;" d="M428.938,320.899h-82.521c-4.267,0-7.727-3.459-7.727-7.727s3.459-7.727,7.727-7.727h82.521
		c4.267,0,7.727,3.459,7.727,7.727S433.205,320.899,428.938,320.899z"/>
	<path style="fill:#C9BCB8;" d="M312.314,115.964h-5.865c-4.267,0-7.727-3.459-7.727-7.727c0-4.268,3.459-7.727,7.727-7.727h5.865
		c4.267,0,7.727,3.459,7.727,7.727C320.041,112.505,316.582,115.964,312.314,115.964z"/>
	<path style="fill:#C9BCB8;" d="M312.314,156.951h-5.865c-4.267,0-7.727-3.459-7.727-7.727c0-4.267,3.459-7.727,7.727-7.727h5.865
		c4.267,0,7.727,3.459,7.727,7.727S316.582,156.951,312.314,156.951z"/>
	<path style="fill:#C9BCB8;" d="M312.314,197.938h-5.865c-4.267,0-7.727-3.459-7.727-7.727c0-4.267,3.459-7.727,7.727-7.727h5.865
		c4.267,0,7.727,3.459,7.727,7.727S316.582,197.938,312.314,197.938z"/>
	<path style="fill:#C9BCB8;" d="M312.314,238.925h-5.865c-4.267,0-7.727-3.459-7.727-7.727c0-4.267,3.459-7.727,7.727-7.727h5.865
		c4.267,0,7.727,3.459,7.727,7.727S316.582,238.925,312.314,238.925z"/>
	<path style="fill:#C9BCB8;" d="M312.314,279.912h-5.865c-4.267,0-7.727-3.459-7.727-7.727c0-4.267,3.459-7.727,7.727-7.727h5.865
		c4.267,0,7.727,3.459,7.727,7.727C320.041,276.453,316.582,279.912,312.314,279.912z"/>
	<path style="fill:#C9BCB8;" d="M312.314,320.899h-5.865c-4.267,0-7.727-3.459-7.727-7.727s3.459-7.727,7.727-7.727h5.865
		c4.267,0,7.727,3.459,7.727,7.727S316.582,320.899,312.314,320.899z"/>
	<path style="fill:#C9BCB8;" d="M205.72,115.964h-82.521c-4.267,0-7.727-3.459-7.727-7.727c0-4.268,3.459-7.727,7.727-7.727h82.521
		c4.267,0,7.727,3.459,7.727,7.727C213.447,112.505,209.987,115.964,205.72,115.964z"/>
	<path style="fill:#C9BCB8;" d="M205.72,156.951h-82.521c-4.267,0-7.727-3.459-7.727-7.727c0-4.267,3.459-7.727,7.727-7.727h82.521
		c4.267,0,7.727,3.459,7.727,7.727C213.446,153.492,209.987,156.951,205.72,156.951z"/>
	<path style="fill:#C9BCB8;" d="M205.72,197.938h-82.521c-4.267,0-7.727-3.459-7.727-7.727c0-4.267,3.459-7.727,7.727-7.727h82.521
		c4.267,0,7.727,3.459,7.727,7.727C213.446,194.479,209.987,197.938,205.72,197.938z"/>
	<path style="fill:#C9BCB8;" d="M205.72,238.925h-82.521c-4.267,0-7.727-3.459-7.727-7.727c0-4.267,3.459-7.727,7.727-7.727h82.521
		c4.267,0,7.727,3.459,7.727,7.727C213.446,235.466,209.987,238.925,205.72,238.925z"/>
	<path style="fill:#C9BCB8;" d="M205.72,279.912h-82.521c-4.267,0-7.727-3.459-7.727-7.727c0-4.267,3.459-7.727,7.727-7.727h82.521
		c4.267,0,7.727,3.459,7.727,7.727C213.446,276.453,209.987,279.912,205.72,279.912z"/>
	<path style="fill:#C9BCB8;" d="M205.72,320.899h-82.521c-4.267,0-7.727-3.459-7.727-7.727s3.459-7.727,7.727-7.727h82.521
		c4.267,0,7.727,3.459,7.727,7.727S209.987,320.899,205.72,320.899z"/>
	<path style="fill:#C9BCB8;" d="M89.096,115.964h-5.865c-4.267,0-7.727-3.459-7.727-7.727c0-4.268,3.459-7.727,7.727-7.727h5.865
		c4.267,0,7.727,3.459,7.727,7.727C96.823,112.505,93.364,115.964,89.096,115.964z"/>
	<path style="fill:#C9BCB8;" d="M89.096,156.951h-5.865c-4.267,0-7.727-3.459-7.727-7.727c0-4.267,3.459-7.727,7.727-7.727h5.865
		c4.267,0,7.727,3.459,7.727,7.727S93.364,156.951,89.096,156.951z"/>
	<path style="fill:#C9BCB8;" d="M89.096,197.938h-5.865c-4.267,0-7.727-3.459-7.727-7.727c0-4.267,3.459-7.727,7.727-7.727h5.865
		c4.267,0,7.727,3.459,7.727,7.727S93.364,197.938,89.096,197.938z"/>
	<path style="fill:#C9BCB8;" d="M89.096,238.925h-5.865c-4.267,0-7.727-3.459-7.727-7.727c0-4.267,3.459-7.727,7.727-7.727h5.865
		c4.267,0,7.727,3.459,7.727,7.727S93.364,238.925,89.096,238.925z"/>
	<path style="fill:#C9BCB8;" d="M89.096,279.912h-5.865c-4.267,0-7.727-3.459-7.727-7.727c0-4.267,3.459-7.727,7.727-7.727h5.865
		c4.267,0,7.727,3.459,7.727,7.727C96.823,276.453,93.364,279.912,89.096,279.912z"/>
	<path style="fill:#C9BCB8;" d="M89.096,320.899h-5.865c-4.267,0-7.727-3.459-7.727-7.727s3.459-7.727,7.727-7.727h5.865
		c4.267,0,7.727,3.459,7.727,7.727S93.364,320.899,89.096,320.899z"/>
</g>
<g>
</g>
<g>
</g>
<g>
</g>
<g>
</g>
<g>
</g>
<g>
</g>
<g>
</g>
<g>
</g>
<g>
</g>
<g>
</g>
<g>
</g>
<g>
</g>
<g>
</g>
<g>
</g>
<g>
</g>
</svg>
