<svg id="Layer_1" enable-background="new 0 0 512 512" height="512" viewBox="0 0 512 512" width="512" xmlns="http://www.w3.org/2000/svg"><g><g><path d="m463.918 200.532-37.057-5.571c-4.507-24.029-13.953-46.315-27.251-65.763l22.271-30.152c3.898-5.278 3.35-12.613-1.289-17.252l-19.181-19.181c-4.639-4.639-11.975-5.188-17.252-1.289l-30.152 22.271c-19.448-13.298-41.733-22.744-65.763-27.251l-5.57-37.057c-.975-6.488-6.55-11.287-13.111-11.287h-27.126c-6.561 0-12.136 4.799-13.111 11.288l-5.57 37.057c-24.03 4.507-46.315 13.953-65.763 27.251l-30.151-22.271c-5.278-3.898-12.613-3.35-17.253 1.289l-19.181 19.18c-4.64 4.64-5.188 11.975-1.289 17.252l22.271 30.152c-13.298 19.448-22.744 41.733-27.251 65.763l-37.057 5.571c-6.489.975-11.288 6.55-11.288 13.111v27.126c0 6.561 4.799 12.136 11.288 13.111l37.057 5.57c4.507 24.03 13.953 46.315 27.251 65.763l-22.271 30.151c-3.898 5.278-3.35 12.613 1.289 17.253l19.181 19.181c4.64 4.64 11.975 5.188 17.253 1.289l30.151-22.271c19.448 13.298 41.734 22.744 65.763 27.251l5.57 37.057c.975 6.488 6.55 11.288 13.111 11.288h27.126c6.561 0 12.136-4.799 13.111-11.288l5.57-37.057c24.03-4.507 46.315-13.953 65.763-27.251l30.152 22.271c5.278 3.899 12.613 3.35 17.252-1.289l19.181-19.181c4.639-4.639 5.188-11.975 1.289-17.253l-22.271-30.152c13.298-19.448 22.744-41.733 27.251-65.763l37.057-5.57c6.488-.975 11.288-6.55 11.288-13.111v-27.126c0-6.56-4.799-12.135-11.288-13.11zm-207.918 159.228c-73.208 0-132.554-59.346-132.554-132.554 0-73.207 59.347-132.554 132.554-132.554s132.554 59.347 132.554 132.554c0 73.208-59.346 132.554-132.554 132.554z" fill="#ff4755"/><path d="m256 377.76c73.208 0 132.554-59.346 132.554-132.554 0-3.026-.111-6.025-.311-9-4.628 69.009-62.061 123.554-132.243 123.554s-127.615-54.545-132.244-123.554c-.2 2.975-.311 5.974-.311 9 .001 73.208 59.347 132.554 132.555 132.554z" fill="#fc2b3a"/><path d="m350.017 468.817h-188.034c-9.716 0-17.592 7.876-17.592 17.592v17.591h223.218v-17.592c0-9.715-7.876-17.591-17.592-17.591z" fill="#365e7d"/><path d="m144.412 486c-.003.137-.021.271-.021.408v17.592h223.218v-17.592c0-.138-.017-.271-.021-.408z" fill="#2b4d66"/><path d="m300.738 265.052h-89.477c-9.761 0-17.674-7.913-17.674-17.674s7.913-17.674 17.674-17.674h89.477c9.761 0 17.674 7.913 17.674 17.674.001 9.761-7.912 17.674-17.674 17.674z" fill="#407093"/><path d="m300.738 247.052h-89.477c-6.47 0-12.111-3.487-15.191-8.674-1.567 2.638-2.483 5.709-2.483 9 0 9.761 7.913 17.674 17.674 17.674h89.477c9.761 0 17.674-7.913 17.674-17.674 0-3.291-.916-6.362-2.483-9-3.079 5.186-8.721 8.674-15.191 8.674z" fill="#365e7d"/><path d="m297.956 169.389v16.645c0 3.797-3.078 6.875-6.875 6.875h-9.919c-3.797 0-6.875-3.078-6.875-6.875v-16.645c0-4.238-3.435-7.673-7.673-7.673h-21.227c-4.238 0-7.673 3.436-7.673 7.673v16.645c0 3.797-3.078 6.875-6.875 6.875h-9.919c-3.797 0-6.875-3.078-6.875-6.875v-16.645c0-4.238-3.435-7.673-7.673-7.673h-19.212c-4.238 0-7.673 3.436-7.673 7.673v43.127c0 9.492 7.695 17.187 17.187 17.187h118.653c9.492 0 17.187-7.695 17.187-17.187v-43.127c0-4.238-3.435-7.673-7.673-7.673h-19.212c-4.238 0-7.673 3.436-7.673 7.673z" fill="#4a80aa"/><path d="m315.327 211.703h-118.653c-9.492 0-17.187-7.695-17.187-17.187v18c0 9.492 7.695 17.187 17.187 17.187h118.653c9.492 0 17.187-7.695 17.187-17.187v-18c0 9.492-7.695 17.187-17.187 17.187z" fill="#407093"/><path d="m332.514 433.972v-15.975c0-5.701-1.785-11.258-5.105-15.892-19.154-26.738-29.453-58.803-29.453-91.694v-45.358h-83.911v45.358c0 32.891-10.3 64.956-29.453 91.694-3.32 4.634-5.105 10.192-5.105 15.892v15.975z" fill="#e6e2e6"/><path d="m332.514 433.972v-15.975c0-5.701-1.785-11.258-5.105-15.892-19.154-26.738-29.453-58.803-29.453-91.694v-45.358h-83.911v45.358c0 32.891-10.3 64.956-29.453 91.694-3.32 4.634-5.105 10.192-5.105 15.892v15.975z" fill="#4a80aa"/><path d="m332.909 468.817h-153.818c-9.622 0-17.422-7.8-17.422-17.422s7.8-17.422 17.422-17.422h153.818c9.622 0 17.422 7.8 17.422 17.422s-7.8 17.422-17.422 17.422z" fill="#407093"/><path d="m332.909 450.817h-153.818c-6.324 0-11.844-3.381-14.897-8.422-1.592 2.629-2.525 5.702-2.525 9 0 9.622 7.8 17.422 17.422 17.422h153.818c9.622 0 17.422-7.8 17.422-17.422 0-3.298-.933-6.371-2.525-9-3.053 5.041-8.573 8.422-14.897 8.422z" fill="#365e7d"/></g><path d="m465.442 192.993-31.927-4.8c-4.588-21.045-12.794-40.847-24.454-59.008l19.19-25.98c6.164-8.346 5.314-19.728-2.023-27.065l-19.219-19.219c-7.337-7.336-18.718-8.188-27.065-2.022l-25.98 19.19c-18.16-11.66-37.964-19.867-59.007-24.454l-4.799-31.928c-1.542-10.26-10.193-17.707-20.569-17.707h-27.179c-10.376 0-19.026 7.447-20.567 17.707l-4.8 31.928c-21.044 4.587-40.847 12.794-59.008 24.454l-25.98-19.19c-8.345-6.165-19.727-5.313-27.065 2.022l-19.218 19.219c-7.337 7.337-8.188 18.719-2.023 27.065l19.19 25.98c-11.66 18.161-19.867 37.964-24.454 59.008l-31.928 4.8c-10.26 1.541-17.707 10.192-17.707 20.567v27.178c0 10.375 7.447 19.025 17.707 20.568l31.928 4.799c4.587 21.043 12.793 40.846 24.454 59.008l-19.19 25.98c-6.165 8.346-5.314 19.729 2.023 27.065l19.218 19.219c7.338 7.336 18.719 8.187 27.065 2.022l25.982-19.191c7.576 4.856 15.516 9.148 23.724 12.827-1.104 1.677-2.243 3.338-3.419 4.978-4.266 5.955-6.521 12.975-6.521 20.3v9.531c-10.311 3.073-17.853 12.636-17.853 23.932 0 3.77.851 7.342 2.353 10.55-11.237 2.507-19.664 12.551-19.664 24.532v17.626c0 4.15 3.365 7.515 7.515 7.515h223.655c4.15 0 7.515-3.365 7.515-7.515v-17.626c0-11.982-8.428-22.026-19.666-24.533 1.503-3.208 2.354-6.779 2.354-10.549 0-11.296-7.541-20.859-17.852-23.932v-9.531c0-7.325-2.255-14.345-6.521-20.3-1.175-1.641-2.314-3.301-3.419-4.979 8.209-3.678 16.148-7.97 23.724-12.827l25.981 19.191c3.73 2.755 8.066 4.11 12.377 4.109 5.334 0 10.63-2.074 14.688-6.132l19.219-19.218c7.337-7.336 8.187-18.718 2.023-27.065l-19.19-25.98c11.66-18.161 19.866-37.963 24.454-59.008l31.928-4.799c10.26-1.543 17.707-10.193 17.707-20.568v-27.177c0-10.376-7.447-19.026-17.707-20.567zm-105.129 293.866v10.112h-208.626v-10.112c0-5.575 4.536-10.111 10.111-10.111h188.402c5.576 0 10.113 4.536 10.113 10.111zm-17.312-35.082c0 5.482-4.46 9.942-9.941 9.942h-154.12c-5.482 0-9.942-4.46-9.942-9.942s4.46-9.942 9.942-9.942h34.933c4.15 0 7.515-3.365 7.515-7.515s-3.365-7.515-7.515-7.515h-27.022v-8.492c0-4.167 1.283-8.16 3.709-11.547 20.225-28.235 30.916-61.518 30.916-96.25v-9.37h69.046v9.37c0 34.732 10.691 68.015 30.916 96.25 2.427 3.388 3.709 7.381 3.709 11.547v8.492h-81.217c-4.15 0-7.515 3.365-7.515 7.515s3.365 7.515 7.515 7.515h89.128c5.483 0 9.943 4.46 9.943 9.942zm-87.004-229.64h-59.439c-5.352 0-9.706-4.354-9.706-9.706v-43.211c0-.095.078-.173.174-.173h19.249c.096 0 .174.078.174.173v16.678c0 7.942 6.461 14.403 14.403 14.403h9.938c7.942 0 14.403-6.461 14.403-14.403v-16.678c0-.095.078-.173.174-.173h21.268c.096 0 .174.078.174.173v16.678c0 7.942 6.461 14.403 14.403 14.403h9.938c7.942 0 14.403-6.461 14.403-14.403v-16.678c0-.095.078-.173.174-.173h19.249c.095 0 .173.078.173.173v43.211c0 5.352-4.354 9.706-9.706 9.706h-29.388c-4.15 0-7.515 3.365-7.515 7.515s3.365 7.515 7.515 7.515h14.771c5.621 0 10.194 4.573 10.194 10.194s-4.573 10.194-10.194 10.194h-89.652c-5.621 0-10.194-4.573-10.194-10.194s4.573-10.194 10.194-10.194h44.822c4.15 0 7.515-3.364 7.515-7.515 0-4.15-3.364-7.515-7.514-7.515zm34.526 50.447v13.533h-69.046v-13.533zm177.597-31.845c0 2.878-2.066 5.278-4.912 5.706l-37.129 5.581c-3.163.476-5.679 2.902-6.269 6.046-4.259 22.708-13.048 43.916-26.121 63.035-1.805 2.64-1.742 6.134.159 8.706l22.315 30.21c1.71 2.315 1.475 5.473-.561 7.508l-19.219 19.219c-2.035 2.035-5.193 2.271-7.508.561l-30.21-22.315c-2.572-1.9-6.065-1.964-8.707-.159-8.628 5.9-17.825 10.969-27.401 15.145-4.097-7.832-7.474-15.974-10.11-24.352 23.521-10.328 43.667-26.815 58.54-48.031 16.579-23.65 25.342-51.469 25.342-80.45 0-77.377-62.951-140.328-140.328-140.328-14.564 0-28.922 2.223-42.673 6.608-3.954 1.261-6.137 5.488-4.877 9.442 1.261 3.954 5.489 6.138 9.442 4.877 12.273-3.913 25.094-5.898 38.107-5.898 69.09 0 125.299 56.209 125.299 125.299 0 25.878-7.822 50.714-22.619 71.823-12.815 18.281-30.005 32.634-50.055 41.905-2.032-9.905-3.072-20.062-3.072-30.361v-9.37h5.543c4.15 0 7.515-3.365 7.515-7.515s-3.365-7.515-7.515-7.515h-5.543v-13.983c11.656-2.22 20.497-12.48 20.497-24.773 0-4.131-1.008-8.027-2.776-11.472 9.811-3.284 16.905-12.555 16.905-23.458v-43.21c0-8.383-6.82-15.203-15.203-15.203h-19.249c-8.383 0-15.203 6.82-15.203 15.203v16.051h-8.686v-16.051c0-8.383-6.82-15.203-15.203-15.203h-21.268c-8.383 0-15.203 6.82-15.203 15.203v16.051h-8.686v-16.051c0-8.383-6.82-15.203-15.203-15.203h-19.249c-8.383 0-15.203 6.82-15.203 15.203v43.211c0 10.902 7.093 20.174 16.904 23.458-1.768 3.445-2.775 7.341-2.775 11.472 0 12.293 8.841 22.553 20.497 24.773v13.983h-5.543c-4.15 0-7.515 3.365-7.515 7.515s3.365 7.515 7.515 7.515h5.543v9.37c0 10.299-1.041 20.456-3.072 30.361-20.05-9.272-37.24-23.625-50.055-41.905-14.798-21.109-22.619-45.945-22.619-71.823 0-22.122 5.84-43.863 16.891-62.872 10.728-18.456 26.099-33.982 44.45-44.897 3.567-2.122 4.739-6.733 2.617-10.3-2.121-3.566-6.733-4.738-10.3-2.617-20.543 12.219-37.75 29.599-49.76 50.261-12.382 21.301-18.927 45.654-18.927 70.426 0 28.981 8.763 56.8 25.342 80.45 14.873 21.216 35.019 37.703 58.54 48.031-2.636 8.378-6.013 16.52-10.11 24.352-9.577-4.176-18.774-9.246-27.402-15.145-2.64-1.805-6.133-1.741-8.706.159l-30.211 22.315c-2.313 1.71-5.471 1.475-7.507-.561l-19.218-19.219c-2.035-2.035-2.271-5.192-.561-7.507l22.315-30.21c1.9-2.572 1.964-6.066.158-8.707-13.074-19.121-21.863-40.329-26.121-63.035-.59-3.144-3.106-5.57-6.269-6.046l-37.129-5.581c-2.846-.428-4.912-2.828-4.912-5.706v-27.181c0-2.878 2.066-5.277 4.912-5.705l37.13-5.582c3.164-.475 5.679-2.902 6.269-6.046 4.259-22.707 13.047-43.915 26.121-63.035 1.805-2.64 1.742-6.134-.158-8.707l-22.319-30.21c-1.71-2.315-1.474-5.473.561-7.508l19.218-19.218c2.034-2.036 5.192-2.271 7.508-.561l30.21 22.315c2.572 1.9 6.066 1.964 8.706.159 19.12-13.074 40.329-21.863 63.035-26.121 3.144-.59 5.57-3.105 6.046-6.269l5.582-37.13c.428-2.846 2.827-4.912 5.705-4.912h27.179c2.878 0 5.278 2.066 5.706 4.912l5.581 37.13c.476 3.163 2.902 5.679 6.046 6.269 22.708 4.259 43.916 13.047 63.036 26.121 2.641 1.806 6.134 1.741 8.707-.159l30.21-22.315c2.315-1.71 5.473-1.474 7.508.561l19.219 19.219c2.035 2.035 2.271 5.193.561 7.508l-22.315 30.211c-1.9 2.573-1.964 6.066-.159 8.707 13.073 19.119 21.862 40.327 26.121 63.035.59 3.144 3.106 5.57 6.269 6.046l37.129 5.582c2.846.428 4.912 2.827 4.912 5.705v27.177z"/></g></svg>