<svg id="Capa_1" enable-background="new 0 0 512 512" height="512" viewBox="0 0 512 512" width="512" xmlns="http://www.w3.org/2000/svg"><g><g><g><path d="m422.473 7.701h-332.289c-18.071 0-32.855 14.785-32.855 32.855v332.289c0 18.071 14.785 32.855 32.855 32.855h332.289c18.07 0 32.855-14.785 32.855-32.855v-332.289c0-18.07-14.785-32.855-32.855-32.855z" fill="#e39b74"/><path d="m137.328 372.846v-332.29c0-18.07 14.785-32.855 32.855-32.855h-80c-18.071 0-32.855 14.785-32.855 32.855v332.289c0 18.071 14.785 32.855 32.855 32.855h80c-18.07.001-32.855-14.784-32.855-32.854z" fill="#da7e4a"/><path d="m429.054 120.338v-76.066c0-5.687-4.61-10.297-10.297-10.297h-76.066l-11.338 5.392h-66.667l-8.358-5.392h-86.363l-86.363 86.363v86.363l10.418 10.667v64.667l-10.417 11.03v76.066c0 5.687 4.61 10.296 10.296 10.296h76.066l11.388-9.392h63.333l11.642 9.393h86.363l86.363-86.363v-86.363l-11.034-12.667v-65.895z" fill="#dbedff"/><path d="m137.995 379.427c-.437-2.128-.667-4.329-.667-6.581v-306.233l-53.726 53.726v86.363l10.418 10.667v64.667l-10.417 11.03v76.066c0 5.687 4.61 10.296 10.296 10.296h44.096z" fill="#b5dcff"/><path d="m83.602 206.701h86.363v86.363h-86.363z" fill="#407093"/><path d="m83.602 206.701h53.726v86.363h-53.726z" fill="#365e7d"/><g fill="#407093"><path d="m256.328 206.701h86.363v86.363h-86.363z"/><path d="m169.965 120.338h86.363v86.363h-86.363z"/><path d="m342.691 120.338h86.363v86.363h-86.363z"/><path d="m256.328 33.976h86.363v86.363h-86.363z"/><path d="m342.691 379.427h78.811c4.171 0 7.552-3.381 7.552-7.552v-78.811h-86.363z"/><path d="m83.603 41.528v78.811h86.363v-86.364h-78.811c-4.171 0-7.552 3.382-7.552 7.553z"/></g><path d="m137.328 40.556c0-2.252.23-4.453.667-6.581h-46.84c-4.171 0-7.552 3.381-7.552 7.552v78.811h53.726v-79.782z" fill="#365e7d"/><path d="m169.965 293.064h86.363v86.363h-86.363z" fill="#407093"/></g><path d="m299.51 146.937c-9.144 0-16.583 7.439-16.583 16.583 0 9.145 7.439 16.584 16.583 16.584s16.583-7.439 16.583-16.584c0-9.144-7.439-16.583-16.583-16.583z" fill="#ffd064"/><path d="m299.51 163.521c0-6.122 3.344-11.466 8.292-14.339-2.443-1.418-5.27-2.244-8.292-2.244-9.144 0-16.583 7.439-16.583 16.583s7.439 16.583 16.583 16.583c3.022 0 5.849-.826 8.292-2.244-4.948-2.873-8.292-8.218-8.292-14.339z" fill="#ffc250"/><g><path d="m180.612 255.23c-18.195 4.104-28.295 25.247-18.14 42.318 3.605 6.059 6.511 12.519 8.172 19.214l1.624 1.731h19.795l4.311-2.402c1.624-6.545 4.465-12.86 7.989-18.783 11.001-18.49-2.3-41.893-23.751-42.078z" fill="#ffd064"/><path d="m162.947 297.309c-10.47-17.599 1.077-39.639 20.708-41.885-1.077-.123-2.173-.201-3.296-.201-8.224 0-12.577 0-20.788 0-21.601 0-35.048 23.522-24.004 42.087 3.524 5.923 6.365 12.238 7.989 18.783l2.254 2.402h27.38l-2.254-2.402c-1.624-6.546-4.465-12.861-7.989-18.784z" fill="#ffc250"/><path d="m187.206 344.865-2.215-2.863h-29.25l-3.016 2.863c1.819 31.435-1.629 62.921-10.139 92.964v1.882h52.614l2.146-1.882c-8.512-30.043-11.959-61.53-10.14-92.964z" fill="#ffd064"/><path d="m171.446 344.865 1.75-2.863h-17.456l-3.016 2.863c1.819 31.435-1.629 62.921-10.139 92.964v1.882h22.976v-1.882c4.94-30.043 6.941-61.53 5.885-92.964z" fill="#ffc250"/><path d="m206.158 316.092h-72.386c-.001 0-.002 0-.002 0h31.502c-6.168 0-11.214 5.046-11.214 11.214v6.345c0 6.167 5.046 11.214 11.214 11.214h-31.502.002 72.386c6.168 0 11.214-5.046 11.214-11.214v-6.345c0-6.168-5.046-11.214-11.214-11.214z" fill="#ffe07d"/><path d="m156.059 333.65v-6.345c0-6.168 5.046-11.214 11.214-11.214h-33.5c-6.168 0-11.214 5.046-11.214 11.214v6.345c0 6.167 5.046 11.214 11.214 11.214h33.5c-6.168 0-11.214-5.046-11.214-11.214z" fill="#ffd064"/><path d="m213.83 454.244c-1.717-9.719-10.265-16.742-20.135-16.742-3.324 0-44.135 0-47.459 0-9.87 0-18.418 7.023-20.135 16.742-1.222 6.918-5.081 14.891-14.801 21.685l1.19 2.698h113.292l2.848-2.698c-9.719-6.794-13.579-14.767-14.8-21.685z" fill="#ffc250"/><path d="m154.875 454.244c1.235-9.719 7.384-16.742 14.484-16.742-10.828 0-21.491 0-23.123 0-9.87 0-18.418 7.023-20.135 16.742-1.222 6.918-5.081 14.891-14.801 21.685l1.19 2.698h32.593l-.856-2.698c6.992-6.794 9.769-14.767 10.648-21.685z" fill="#ebb044"/><path d="m240.47 475.929h-99.176c-6.168 0-11.214 5.046-11.214 11.214v6.345c0 6.167 5.046 11.214 11.214 11.214h99.176c6.168 0 11.214-5.046 11.214-11.214v-6.345c0-6.168-5.046-11.214-11.214-11.214z" fill="#ffd064"/><path d="m132.08 493.488v-6.345c0-6.168 5.046-11.214 11.214-11.214h-43.833c-6.168 0-11.214 5.046-11.214 11.214v6.345c0 6.167 5.046 11.214 11.214 11.214h43.833c-6.168 0-11.214-5.047-11.214-11.214z" fill="#ffc250"/></g></g><g><path d="m455 196.5c4.143 0 7.5-3.357 7.5-7.5v-148.645c0-22.251-18.104-40.355-40.355-40.355h-332.29c-22.251 0-40.355 18.104-40.355 40.355v332.289c0 22.252 18.104 40.356 40.355 40.356h50.555c-1.203 6.22-2.632 12.402-4.27 18.541-9.072 3.349-15.997 11.252-17.754 21.198-1.047 5.928-4.38 11.128-9.902 15.489h-9.353c-10.319 0-18.714 8.395-18.714 18.714v6.345c0 10.319 8.395 18.714 18.714 18.714h53.005c4.143 0 7.5-3.357 7.5-7.5s-3.357-7.5-7.5-7.5h-53.004c-2.013 0-3.714-1.701-3.714-3.714v-6.345c0-2.013 1.701-3.714 3.714-3.714h141.01c2.013 0 3.714 1.701 3.714 3.714v6.345c0 2.013-1.701 3.714-3.714 3.714h-53.005c-4.143 0-7.5 3.357-7.5 7.5s3.357 7.5 7.5 7.5h53.005c10.319 0 18.714-8.395 18.714-18.714v-6.345c0-10.319-8.395-18.714-18.714-18.714h-9.353c-5.522-4.361-8.855-9.561-9.902-15.489-1.757-9.946-8.682-17.849-17.754-21.198-1.638-6.139-3.067-12.32-4.27-18.541h223.281c22.252 0 40.355-18.104 40.355-40.355v-148.645c0-4.143-3.357-7.5-7.5-7.5s-7.5 3.357-7.5 7.5v148.645c0 13.981-11.374 25.355-25.355 25.355h-225.725c-.509-3.749-.94-7.508-1.294-11.274h226.048c8.3 0 15.053-6.752 15.053-15.052 0-3.411 0-327.034 0-330.348 0-8.3-6.753-15.052-15.053-15.052-3.411 0-327.033 0-330.347 0-8.3 0-15.052 6.752-15.052 15.052v330.347c0 8.3 6.752 15.053 15.052 15.053h53.323c-.354 3.766-.785 7.526-1.294 11.274h-53c-13.981 0-25.355-11.374-25.355-25.355v-332.29c0-13.981 11.374-25.355 25.355-25.355h332.289c13.981 0 25.355 11.374 25.355 25.355v148.645c.001 4.143 3.358 7.5 7.501 7.5zm-325.271 130.604c0-2.013 1.701-3.714 3.715-3.714h72.386c2.013 0 3.714 1.701 3.714 3.714v6.345c0 2.013-1.701 3.714-3.714 3.714-8.295 0-64.328 0-72.386 0-2.014 0-3.715-1.701-3.715-3.714zm19.083-18.713c-4-11.539-9.657-17.875-9.657-21.797-2.245-12.031 6.89-24.074 20.088-24.074h20.787c13.696 0 22.887 12.912 19.842 25.2-1.537 5.93-5.43 9.169-9.411 20.67h-41.649zm28.325-73.049h10.196c4.143 0 7.5-3.357 7.5-7.5s-3.357-7.5-7.5-7.5h-10.196v-6.342h60.756l-28.888 28.888v-4.521c0-4.143-3.357-7.5-7.5-7.5s-7.5 3.357-7.5 7.5v11.974c-7.061-2.956-12.136-2.821-16.868-2.821zm101.308-82.153c-.417.848-.778 1.727-1.089 2.63h-13.856v-17.574zm20.737 2.046c4.457 0 8.083 3.626 8.083 8.083 0 4.458-3.626 8.084-8.083 8.084-4.458 0-8.084-3.626-8.084-8.084 0-4.457 3.626-8.083 8.084-8.083zm-10.13 28.82c.848.416 1.727.778 2.629 1.089v13.856h-17.573zm17.629 1.09c.903-.311 1.782-.673 2.63-1.09l14.945 14.945h-17.575zm13.237-11.697c.416-.848.778-1.727 1.089-2.629h13.855v17.573zm1.089-17.63c-.311-.902-.673-1.781-1.089-2.629l14.944-14.944v17.573zm-43.652 15c.311.903.673 1.781 1.089 2.63l-14.944 14.945v-17.574h13.855zm-64.996 97.692s-.004-.01-.006-.014h11.78c4.143 0 7.5-3.357 7.5-7.5s-3.357-7.5-7.5-7.5h-4.521l28.888-28.888v60.755h-33.091c.405-5.697-.619-11.459-3.05-16.853zm51.141-54.51h28.181v29.576l-3.196-3.197c-2.93-2.928-7.678-2.928-10.607 0-2.929 2.93-2.929 7.678 0 10.607l16 16c2.931 2.929 7.678 2.928 10.607 0l16-16c2.929-2.93 2.929-7.678 0-10.607-2.93-2.928-7.678-2.928-10.607 0l-3.196 3.197v-29.576h28.182v71.362h-71.364zm86.362 10.606 28.889 28.889h-4.521c-4.143 0-7.5 3.357-7.5 7.5s3.357 7.5 7.5 7.5h22.627c4.143 0 7.5-3.357 7.5-7.5v-22.628c0-4.143-3.357-7.5-7.5-7.5s-7.5 3.357-7.5 7.5v4.52l-28.886-28.887h60.755v71.362h-71.363v-60.756zm71.364-25.606h-71.363v-28.182h29.577l-3.197 3.196c-2.929 2.93-2.929 7.678 0 10.607 2.931 2.929 7.678 2.928 10.607 0l16-16c2.929-2.93 2.929-7.678 0-10.607l-16-16c-2.93-2.928-7.678-2.928-10.607 0-2.929 2.93-2.929 7.678 0 10.607l3.197 3.196h-29.577v-28.182h71.363zm-111.915-56.418c-.849-.416-1.727-.778-2.63-1.089v-13.856h17.575zm-17.63-1.089c-.902.311-1.78.673-2.628 1.089l-14.945-14.945h17.573zm-43.181 14.325h-29.577l3.197-3.196c2.929-2.93 2.929-7.678 0-10.607-2.93-2.928-7.678-2.928-10.607 0l-16 16c-2.929 2.93-2.929 7.678 0 10.607l16 16c2.931 2.929 7.678 2.928 10.607 0 2.929-2.93 2.929-7.678 0-10.607l-3.197-3.196h29.577v28.181h-71.363v-71.363h71.363zm-86.363 43.182h-71.363v-71.363h71.362v71.363zm-71.363 15h71.362v6.342h-10.196c-4.143 0-7.5 3.357-7.5 7.5s3.357 7.5 7.5 7.5h10.196v12.179c-9.397 0-17.199 1.185-25.461 8.084-8.378 6.971-13.642 18.078-12.811 29.758h-33.09zm69.461 138.163h18.803c-.791 26.146 1.916 52.224 8.154 77.638h-35.111c6.213-25.31 8.947-51.355 8.154-77.638zm50.723 116.065h-82.642c2.402-3.992 4.035-8.313 4.842-12.88 1.089-6.166 6.505-10.547 12.749-10.547h47.459c6.266 0 11.664 4.401 12.749 10.547.807 4.566 2.44 8.887 4.843 12.88zm-16.902-116.065h11.774c10.319 0 18.714-8.395 18.714-18.714v-6.345c0-10.216-8.245-18.305-17.951-18.698 1.907-4.25 3.612-6.96 4.225-8.044h37.682v71.363h-54.363c-.249-6.297-.315-12.385-.081-19.562zm69.444-51.801h71.362v71.363h-71.362zm157.673 71.364h-71.311v-71.363h71.358zm.053-330.4v71.311h-60.755l28.887-28.887v4.52c0 4.143 3.357 7.5 7.5 7.5s7.5-3.357 7.5-7.5v-22.628c0-4.143-3.357-7.5-7.5-7.5h-22.628c-4.143 0-7.5 3.357-7.5 7.5s3.357 7.5 7.5 7.5h4.521l-28.889 28.889v-60.757h71.311zm-86.364 71.311h-28.182v-29.577l3.196 3.197c2.931 2.929 7.678 2.928 10.607 0 2.929-2.93 2.929-7.678 0-10.607l-16-16c-2.93-2.928-7.678-2.928-10.607 0l-16 16c-2.929 2.93-2.929 7.678 0 10.607 2.93 2.928 7.678 2.928 10.607 0l3.196-3.197v29.576h-28.179v-71.362h71.362zm-86.362-10.608-28.888-28.888h4.521c4.143 0 7.5-3.357 7.5-7.5s-3.357-7.5-7.5-7.5h-22.628c-4.143 0-7.5 3.357-7.5 7.5v22.629c0 4.143 3.357 7.5 7.5 7.5s7.5-3.357 7.5-7.5v-4.521l28.888 28.888h-60.756v-71.363h71.363zm-157.726-60.703.052-.052h71.311v71.362h-71.363zm0 330.347v-71.311h37.683c.565 1 2.319 3.8 4.224 8.044-10.122.411-17.951 8.86-17.951 18.698v6.345c0 10.319 8.396 18.714 18.715 18.714h11.773c.223 7.08.171 13.126-.081 19.557z"/></g></g></svg>