<svg id="Capa_1" enable-background="new 0 0 512 512" height="512" viewBox="0 0 512 512" width="512" xmlns="http://www.w3.org/2000/svg"><g><g><path d="m232.457 323.761 1.902 2.952h42.43l3.412-2.952c.035-6.934.273-13.874.764-20.811l.73-10.305-2.262-2.728h-46.14l-2.331 2.728.73 10.305c.492 6.936.729 13.877.765 20.811z" fill="#2b4d66"/><path d="m230.962 292.645.73 10.305c.492 6.937.729 13.877.764 20.811l1.901 2.953h27.52c.241-21.068-.812-34.988-.812-34.988l-1.538-1.808h-26.236z" fill="#25475b"/><path d="m305.953 264.492h-62.204l-1.618 1.281v1.032c0 12.158 7.68 22.481 18.134 25.821h23.774c13.711 0 24.929-11.218 24.929-24.929v-.953z" fill="#365e7d"/><path d="m242.466 267.013v-1.013l1.904-1.508h-37.66l-3.022 2.252v.953c0 13.711 11.218 24.929 24.929 24.929h32.416c-10.655-3.012-18.567-13.377-18.567-25.613z" fill="#2b4d66"/><path d="m287.311 168.697c-9.17 0-52.81 0-61.966 0-24.085 0-39.079 26.228-26.765 46.927 3.929 6.604 7.097 13.645 8.907 20.943l1.484 2.956h94.393l1.804-2.956c1.81-7.298 4.978-14.339 8.907-20.943 12.315-20.699-2.678-46.927-26.764-46.927z" fill="#4a80aa"/><path d="m239.29 215.624c-12.314-20.699 2.68-46.927 26.765-46.927-15.822 0-34.991 0-40.709 0-24.085 0-39.079 26.228-26.765 46.927 3.929 6.604 7.097 13.645 8.907 20.943l1.484 2.956h40.709l-1.484-2.956c-1.811-7.297-4.978-14.338-8.907-20.943z" fill="#407093"/><path d="m313.383 236.568h-69.939c-5.426 1.126-9.537 5.959-9.537 11.706v6.764c0 5.747 4.111 10.581 9.537 11.706h69.939c6.469 0 11.761-5.293 11.761-11.761v-6.654c0-6.469-5.292-11.761-11.761-11.761z" fill="#407093"/><path d="m234.101 254.983v-6.654c0-6.469 5.292-11.761 11.761-11.761h-46.587c-6.469 0-11.761 5.292-11.761 11.761v6.654c0 6.468 5.292 11.761 11.761 11.761h46.587c-6.469 0-11.761-5.293-11.761-11.761z" fill="#365e7d"/><path d="m222.859 402.777c10.755 2.487 21.959 3.803 33.47 3.803s22.715-1.315 33.47-3.803c-6.503-25.734-9.734-52.316-9.598-79.017h-47.744c.136 26.702-3.095 53.284-9.598 79.017z" fill="#365e7d"/><path d="m222.859 402.777c10.206 2.36 20.819 3.654 31.712 3.781 5.714-30.625 7.201-60.99 7.333-82.797h-29.447c.136 26.701-3.095 53.283-9.598 79.016z" fill="#2b4d66"/><path d="m496.907 222.453h-34.364c-3.783 0-7.017-2.68-7.763-6.388-5.249-26.1-15.507-50.386-29.745-71.803-2.095-3.152-1.706-7.335.971-10.011l24.301-24.301c3.093-3.093 3.093-8.109 0-11.202l-36.525-36.525c-3.094-3.094-8.109-3.094-11.203 0l-24.301 24.301c-2.676 2.677-6.859 3.066-10.011.971-21.417-14.237-45.703-24.496-71.802-29.745-3.708-.746-6.388-3.98-6.388-7.763v-34.364c0-4.375-3.546-7.921-7.921-7.921h-51.654c-4.375 0-7.921 3.547-7.921 7.921v34.364c0 3.783-2.68 7.017-6.388 7.763-26.1 5.248-50.386 15.508-71.803 29.744-3.152 2.095-7.335 1.706-10.011-.971l-24.301-24.301c-3.094-3.094-8.109-3.094-11.203 0l-36.525 36.526c-3.093 3.094-3.093 8.109 0 11.202l24.301 24.301c2.676 2.677 3.066 6.859.971 10.011-14.237 21.417-24.496 45.703-29.745 71.803-.746 3.708-3.98 6.388-7.763 6.388h-34.364c-4.375 0-7.921 3.547-7.921 7.921v51.654c0 4.375 3.547 7.921 7.921 7.921h34.364c3.783 0 7.018 2.68 7.763 6.388 5.249 26.1 15.508 50.386 29.745 71.803 2.096 3.152 1.706 7.335-.971 10.011l-24.301 24.302c-3.093 3.094-3.093 8.109 0 11.202l36.525 36.525c3.093 3.094 8.109 3.094 11.203 0l24.301-24.301c2.676-2.676 6.859-3.066 10.011-.971 21.417 14.237 45.703 24.496 71.803 29.745 3.708.746 6.388 3.98 6.388 7.763v34.364c0 4.375 3.546 7.921 7.921 7.921h51.654c4.375 0 7.921-3.547 7.921-7.921v-34.364c0-3.783 2.68-7.018 6.388-7.763 26.1-5.249 50.386-15.508 71.803-29.745 3.152-2.095 7.335-1.706 10.011.971l24.301 24.301c3.093 3.094 8.109 3.094 11.203 0l36.525-36.525c3.093-3.093 3.093-8.109 0-11.202l-24.301-24.301c-2.676-2.676-3.066-6.859-.971-10.011 14.237-21.417 24.496-45.703 29.745-71.803.746-3.708 3.98-6.388 7.763-6.388h34.364c4.375 0 7.921-3.547 7.921-7.921v-51.654c-.001-4.375-3.547-7.922-7.922-7.922zm-240.579 180.248c-80.91 0-146.5-65.59-146.5-146.5s65.59-146.5 146.5-146.5 146.5 65.59 146.5 146.5-65.59 146.5-146.5 146.5z" fill="#dbedff"/><g><path d="m114.094 291.392c-2.78-11.274-4.265-23.058-4.265-35.19s1.485-23.917 4.265-35.19c9.289-65.516 44.119-122.804 94.101-161.469-23.068 5.624-44.593 15.181-63.805 27.952-3.152 2.095-7.335 1.706-10.011-.971l-24.301-24.301c-3.094-3.094-8.109-3.094-11.203 0l-36.525 36.525c-3.093 3.094-3.093 8.109 0 11.202l24.301 24.301c2.676 2.677 3.066 6.859.971 10.011-14.237 21.417-24.496 45.703-29.745 71.803-.746 3.708-3.98 6.388-7.763 6.388h-34.364c-4.375 0-7.921 3.547-7.921 7.921v51.654c0 4.375 3.547 7.921 7.921 7.921h34.364c3.783 0 7.018 2.68 7.763 6.388 5.249 26.1 15.508 50.386 29.745 71.803 2.096 3.152 1.706 7.335-.971 10.011l-24.301 24.302c-3.093 3.094-3.093 8.109 0 11.202l36.525 36.525c3.093 3.094 8.109 3.094 11.203 0l24.301-24.301c2.676-2.676 6.859-3.066 10.011-.971 19.212 12.771 40.738 22.328 63.805 27.952-49.982-38.664-84.813-95.952-94.101-161.468z" fill="#b5dcff"/></g></g><g><path d="m455.283 115.051c6.011-6.012 6.012-15.795 0-21.809l-36.525-36.523c-2.912-2.914-6.785-4.518-10.904-4.518s-7.992 1.604-10.905 4.517l-24.301 24.301c-.141.142-.372.151-.556.028-22.72-15.103-47.777-25.482-74.476-30.851-.216-.043-.367-.212-.367-.411v-34.364c0-8.503-6.918-15.421-15.422-15.421h-51.653c-8.504 0-15.422 6.918-15.422 15.421v34.364c0 .199-.151.368-.366.411-26.699 5.369-51.757 15.749-74.477 30.852-.187.125-.416.112-.556-.028l-24.301-24.3c-2.912-2.914-6.785-4.518-10.904-4.518s-7.992 1.604-10.905 4.517l-36.525 36.524c-2.912 2.913-4.517 6.786-4.517 10.905s1.604 7.992 4.517 10.904l24.301 24.3c.141.141.152.37.028.557-15.104 22.72-25.483 47.777-30.852 74.476-.044.216-.212.368-.41.368h-34.364c-8.503-.001-15.421 6.917-15.421 15.42v51.654c0 8.503 6.918 15.421 15.421 15.421h34.364c.198 0 .366.151.41.367 5.368 26.699 15.748 51.757 30.852 74.476.124.187.112.416-.028.556l-24.301 24.301c-2.912 2.913-4.517 6.786-4.517 10.905s1.604 7.992 4.517 10.904l36.524 36.525c6.027 6.027 15.782 6.029 21.81 0l24.3-24.3c.142-.14.37-.153.557-.028 22.719 15.102 47.775 25.482 74.477 30.852.216.043.366.212.366.41v34.364c0 8.503 6.918 15.421 15.422 15.421h51.653c8.504 0 15.422-6.918 15.422-15.421v-34.364c0-.198.15-.367.366-.41 7.539-1.516 15.154-3.502 22.633-5.903 3.944-1.266 6.115-5.489 4.849-9.434-1.266-3.944-5.492-6.115-9.433-4.849-6.947 2.23-14.015 4.073-21.006 5.479-7.19 1.446-12.409 7.803-12.409 15.116v34.364c0 .232-.189.421-.422.421h-51.653c-.232 0-.422-.189-.422-.421v-34.364c0-7.313-5.219-13.67-12.409-15.116-24.782-4.983-48.041-14.619-69.129-28.637-6.111-4.063-14.297-3.257-19.468 1.913l-24.301 24.302c-.034.033-.123.123-.297.123-.175 0-.265-.09-.298-.124l-36.525-36.526c-.033-.034-.123-.123-.123-.297 0-.175.09-.265.124-.298l24.301-24.301c5.169-5.169 5.974-13.355 1.913-19.466-14.021-21.09-23.655-44.349-28.639-69.13-1.446-7.19-7.804-12.409-15.115-12.409h-34.365c-.232 0-.421-.189-.421-.421v-51.654c0-.232.188-.421.421-.421h34.364c7.313 0 13.669-5.219 15.115-12.41 4.983-24.781 14.618-48.039 28.639-69.13 4.061-6.109 3.256-14.296-1.913-19.466l-24.302-24.301c-.033-.034-.123-.123-.123-.297 0-.175.09-.265.124-.298l36.524-36.524c.033-.034.123-.124.298-.124.174 0 .263.089.297.124l24.302 24.301c5.169 5.17 13.355 5.974 19.467 1.913 21.09-14.02 44.348-23.654 69.13-28.638 7.189-1.447 12.408-7.804 12.408-15.116v-34.366c0-.232.189-.421.422-.421h51.653c.232 0 .422.189.422.421v34.364c0 7.313 5.219 13.669 12.409 15.117 24.781 4.983 48.039 14.618 69.129 28.637 6.108 4.061 14.297 3.258 19.468-1.913l24.301-24.301c.033-.034.123-.124.298-.124.174 0 .263.089.297.124l36.525 36.523c.164.165.165.433 0 .597l-24.3 24.301c-5.171 5.17-5.976 13.357-1.914 19.467 14.019 21.089 23.653 44.348 28.638 69.13 1.446 7.19 7.804 12.409 15.115 12.409h34.364c.232 0 .421.189.421.421v51.654c0 .232-.188.421-.421.421h-34.364c-7.312 0-13.669 5.219-15.115 12.41-4.984 24.782-14.619 48.041-28.637 69.129-4.063 6.11-3.259 14.298 1.912 19.467l24.301 24.3c.164.165.165.433 0 .597l-36.525 36.526c-.034.033-.123.123-.297.123-.175 0-.265-.09-.298-.124l-24.302-24.301c-5.171-5.17-13.357-5.975-19.467-1.913-5.416 3.601-11.142 6.996-17.019 10.093-3.665 1.931-5.07 6.467-3.139 10.131 1.93 3.664 6.465 5.071 10.131 3.139 6.325-3.333 12.492-6.99 18.331-10.872.188-.124.417-.111.556.028l24.301 24.301c6.027 6.027 15.782 6.029 21.81 0l36.525-36.525c6.011-6.012 6.012-15.795 0-21.809l-24.302-24.302c-.141-.14-.151-.368-.027-.555 15.102-22.718 25.481-47.776 30.851-74.476.044-.217.212-.368.41-.368h34.364c8.503 0 15.421-6.918 15.421-15.421v-51.654c0-8.503-6.918-15.421-15.421-15.421h-34.364c-.198 0-.366-.151-.41-.367-5.369-26.7-15.749-51.757-30.852-74.477-.124-.186-.112-.414.029-.555z"/><path d="m394.352 242.576c.396 4.123 4.044 7.146 8.181 6.75 4.123-.395 7.146-4.058 6.751-8.181-7.507-78.37-73.527-139.145-153.284-139.145-84.916 0-154 69.084-154 154 0 84.464 68.627 154 154 154 77.01 0 141.713-56.856 152.44-132.081.585-4.101-2.266-7.899-6.366-8.483-4.107-.588-7.899 2.266-8.483 6.366-7.836 54.954-48.021 98.973-99.468 113.807-6.836-31.636-8.051-60.049-5.923-90.061 13.662-1.901 24.626-12.339 27.307-25.739 9.465-1.211 16.809-9.299 16.809-19.087v-6.654c0-9.886-7.49-18.047-17.092-19.13 1.36-3.204 3.017-6.458 4.969-9.74 15.293-25.704-3.28-58.262-33.21-58.262h-23.483v-10.79h16.312c4.143 0 7.5-3.358 7.5-7.5s-3.357-7.5-7.5-7.5h-16.312v-17.943c68.607 3.598 124.234 56.284 130.852 125.373zm-176.49 147.104c-58.162-16.617-100.862-70.255-100.862-133.68 0-74.129 58.329-134.886 131.5-138.796v17.943h-16.311c-4.143 0-7.5 3.358-7.5 7.5s3.357 7.5 7.5 7.5h16.311v10.79h-23.482c-29.935 0-48.5 32.564-33.21 58.262 1.952 3.282 3.609 6.535 4.969 9.74-9.602 1.083-17.092 9.244-17.092 19.13v6.654c0 9.788 7.344 17.876 16.808 19.087 2.681 13.4 13.646 23.838 27.309 25.739 2.109 29.812.95 58.285-5.94 90.131zm14.665 3.328c4.445-20.48 6.866-41.306 7.246-62.244h32.453c.379 20.928 2.799 41.743 7.24 62.214-15.457 2.675-31.321 2.696-46.939.03zm6.334-93.142h34.278c-.203 2.867-.599 7.999-.824 15.898h-32.631c-.219-7.743-.597-12.714-.823-15.898zm44.85-15c-1.149 0-52.746 0-55.423 0-7.296 0-13.56-4.506-16.153-10.882h87.729c-2.594 6.375-8.857 10.882-16.153 10.882zm33.605-36.798v6.654c0 2.31-1.951 4.261-4.262 4.261-4.356 0-109.764 0-114.108 0-2.311 0-4.262-1.951-4.262-4.261v-6.654c0-2.31 1.951-4.261 4.262-4.261h114.108c2.311 0 4.262 1.951 4.262 4.261zm-30.333-72.131c18.313 0 29.647 19.91 20.319 35.593-3.446 5.792-6.149 11.582-8.072 17.278h-86.46c-1.923-5.696-4.627-11.486-8.072-17.278-9.334-15.693 2.02-35.593 20.319-35.593z"/></g></g></svg>